<svg width="28" height="28" viewBox="0 0 28 28" fill="none" xmlns="http://www.w3.org/2000/svg">
<path d="M27.0674 13.9091C27.0674 21.319 21.1158 27.3182 13.7837 27.3182C6.45158 27.3182 0.5 21.319 0.5 13.9091C0.5 6.49918 6.45158 0.5 13.7837 0.5C21.1158 0.5 27.0674 6.49918 27.0674 13.9091Z" stroke="white"/>
<path d="M15.0103 22.9972V14.8012H17.7504L18.1577 11.5922H15.0103V9.54817C15.0103 8.62217 15.266 7.98817 16.583 7.98817H18.2518V5.12717C17.4399 5.03936 16.6237 4.99696 15.8071 5.00017C13.3851 5.00017 11.7222 6.49217 11.7222 9.23117V11.5862H9V14.7952H11.7282V22.9972H15.0103Z" fill="white"/>
</svg>
