<svg width="28" height="28" viewBox="0 0 28 28" fill="none" xmlns="http://www.w3.org/2000/svg">
<path d="M27.0674 13.9091C27.0674 21.319 21.1158 27.3182 13.7837 27.3182C6.45158 27.3182 0.5 21.319 0.5 13.9091C0.5 6.49918 6.45158 0.5 13.7837 0.5C21.1158 0.5 27.0674 6.49918 27.0674 13.9091Z" stroke="white"/>
<path fill-rule="evenodd" clip-rule="evenodd" d="M10.6594 6.048C11.5048 6.00873 11.7744 6 13.9279 6C16.0814 6 16.3509 6.00945 17.1956 6.048C18.0403 6.08655 18.6169 6.22255 19.1214 6.41964C19.6497 6.62109 20.1289 6.936 20.5253 7.34327C20.9289 7.74255 21.2403 8.22545 21.4392 8.75927C21.6352 9.26836 21.7693 9.85018 21.8082 10.7011C21.8471 11.5556 21.8558 11.8276 21.8558 14C21.8558 16.1731 21.8464 16.4451 21.8082 17.2982C21.77 18.1491 21.6352 18.7309 21.4392 19.24C21.2403 19.7739 20.9284 20.2576 20.5253 20.6575C20.1289 21.0647 19.6497 21.3789 19.1214 21.5796C18.6169 21.7775 18.0403 21.9127 17.1971 21.952C16.3509 21.9913 16.0814 22 13.9279 22C11.7744 22 11.5048 21.9905 10.6594 21.952C9.8162 21.9135 9.23962 21.7775 8.73512 21.5796C8.20606 21.3789 7.72671 21.0642 7.33044 20.6575C6.92712 20.2579 6.615 19.7745 6.41585 19.2407C6.22054 18.7316 6.08649 18.1498 6.04757 17.2989C6.00865 16.4444 6 16.1724 6 14C6 11.8269 6.00937 11.5549 6.04757 10.7025C6.08577 9.85018 6.22054 9.26836 6.41585 8.75927C6.61529 8.22551 6.92765 7.74205 7.33116 7.34255C7.72687 6.93564 8.20573 6.62069 8.7344 6.41964C9.2389 6.22255 9.81548 6.08727 10.6587 6.048H10.6594ZM17.1315 7.488C16.2954 7.44945 16.0446 7.44145 13.9279 7.44145C11.8111 7.44145 11.5603 7.44945 10.7243 7.488C9.95097 7.52364 9.53151 7.65382 9.25188 7.76364C8.88215 7.90909 8.61764 8.08145 8.34017 8.36145C8.07714 8.61967 7.87471 8.93402 7.74774 9.28145C7.63891 9.56364 7.5099 9.98691 7.47459 10.7673C7.43639 11.6109 7.42846 11.864 7.42846 14C7.42846 16.136 7.43639 16.3891 7.47459 17.2327C7.5099 18.0131 7.63891 18.4364 7.74774 18.7185C7.87459 19.0655 8.07711 19.3804 8.34017 19.6385C8.59602 19.904 8.90809 20.1084 9.25188 20.2364C9.53151 20.3462 9.95097 20.4764 10.7243 20.512C11.5603 20.5505 11.8104 20.5585 13.9279 20.5585C16.0454 20.5585 16.2954 20.5505 17.1315 20.512C17.9048 20.4764 18.3243 20.3462 18.6039 20.2364C18.9736 20.0909 19.2381 19.9185 19.5156 19.6385C19.7787 19.3804 19.9812 19.0655 20.108 18.7185C20.2169 18.4364 20.3459 18.0131 20.3812 17.2327C20.4194 16.3891 20.4273 16.136 20.4273 14C20.4273 11.864 20.4194 11.6109 20.3812 10.7673C20.3459 9.98691 20.2169 9.56364 20.108 9.28145C19.9639 8.90836 19.7931 8.64145 19.5156 8.36145C19.2597 8.09605 18.9482 7.89179 18.6039 7.76364C18.3243 7.65382 17.9048 7.52364 17.1315 7.488ZM12.9153 16.4662C13.4808 16.7037 14.1105 16.7358 14.6968 16.5569C15.2832 16.378 15.7898 15.9992 16.1301 15.4853C16.4705 14.9713 16.6234 14.3541 16.5629 13.739C16.5023 13.1239 16.232 12.5491 15.7981 12.1127C15.5216 11.8338 15.1871 11.6202 14.8189 11.4874C14.4507 11.3545 14.0579 11.3057 13.6688 11.3444C13.2796 11.3832 12.9039 11.5085 12.5685 11.7114C12.2331 11.9142 11.9465 12.1896 11.7292 12.5177C11.5119 12.8458 11.3695 13.2184 11.3121 13.6087C11.2546 13.999 11.2837 14.3973 11.3971 14.7749C11.5106 15.1525 11.7055 15.5001 11.9681 15.7925C12.2306 16.085 12.5541 16.315 12.9153 16.4662ZM11.0465 11.0924C11.4249 10.7105 11.8741 10.4076 12.3685 10.201C12.8629 9.99434 13.3928 9.88798 13.9279 9.88798C14.463 9.88798 14.9929 9.99434 15.4873 10.201C15.9817 10.4076 16.4309 10.7105 16.8093 11.0924C17.1877 11.4742 17.4879 11.9275 17.6927 12.4264C17.8974 12.9253 18.0028 13.46 18.0028 14C18.0028 14.54 17.8974 15.0747 17.6927 15.5736C17.4879 16.0725 17.1877 16.5258 16.8093 16.9076C16.0451 17.6788 15.0086 18.112 13.9279 18.112C12.8471 18.112 11.8107 17.6788 11.0465 16.9076C10.2823 16.1365 9.85294 15.0906 9.85294 14C9.85294 12.9094 10.2823 11.8635 11.0465 11.0924ZM18.9066 10.5004C19.0004 10.4111 19.0754 10.3038 19.1274 10.1847C19.1793 10.0656 19.207 9.93729 19.2089 9.80722C19.2108 9.67716 19.1868 9.54803 19.1383 9.4275C19.0898 9.30696 19.0179 9.19746 18.9268 9.10548C18.8356 9.0135 18.7271 8.94091 18.6076 8.89201C18.4882 8.84311 18.3602 8.81889 18.2313 8.82079C18.1024 8.82268 17.9752 8.85066 17.8573 8.90305C17.7393 8.95545 17.6329 9.0312 17.5444 9.12582C17.3724 9.30984 17.2782 9.55427 17.2819 9.80722C17.2855 10.0602 17.3867 10.3017 17.564 10.4806C17.7413 10.6595 17.9807 10.7616 18.2313 10.7653C18.482 10.769 18.7242 10.674 18.9066 10.5004Z" fill="white"/>
</svg>
